<?xml version="1.0" encoding="UTF-8" standalone="no"?>
<!DOCTYPE svg PUBLIC "-//W3C//DTD SVG 1.1//EN"
 "http://www.w3.org/Graphics/SVG/1.1/DTD/svg11.dtd">
<!-- Generated by graphviz version 2.43.0 (0)
 -->
<!-- Title: Letra Pages: 1 -->
<svg width="111pt" height="207pt"
 viewBox="0.00 0.00 111.00 207.00" xmlns="http://www.w3.org/2000/svg" xmlns:xlink="http://www.w3.org/1999/xlink">
<g id="graph0" class="graph" transform="scale(1 1) rotate(0) translate(4 203)">
<title>Letra</title>
<!-- Node1 -->
<g id="Node000001" class="node">
<title>Node1</title>
<g id="a_Node000001"><a xlink:title="TDA Letra.">
<polygon fill="#999999" stroke="transparent" points="103,-199 0,-199 0,0 103,0 103,-199"/>
<text text-anchor="start" x="38" y="-186.5" font-family="Times,serif" font-size="10.00">Letra</text>
<text text-anchor="start" x="50" y="-171.5" font-family="Times,serif" font-size="10.00"> </text>
<text text-anchor="start" x="4.5" y="-156.5" font-family="Times,serif" font-size="10.00">+</text>
<text text-anchor="start" x="17.5" y="-156.5" font-family="Times,serif" font-size="10.00">Letra()</text>
<text text-anchor="start" x="4.5" y="-141.5" font-family="Times,serif" font-size="10.00">+</text>
<text text-anchor="start" x="17.5" y="-141.5" font-family="Times,serif" font-size="10.00">Letra()</text>
<text text-anchor="start" x="4.5" y="-126.5" font-family="Times,serif" font-size="10.00">+</text>
<text text-anchor="start" x="17.5" y="-126.5" font-family="Times,serif" font-size="10.00">Letra()</text>
<text text-anchor="start" x="4.5" y="-111.5" font-family="Times,serif" font-size="10.00">+</text>
<text text-anchor="start" x="17.5" y="-111.5" font-family="Times,serif" font-size="10.00">setCaracter()</text>
<text text-anchor="start" x="4.5" y="-96.5" font-family="Times,serif" font-size="10.00">+</text>
<text text-anchor="start" x="17.5" y="-96.5" font-family="Times,serif" font-size="10.00">setCantidad()</text>
<text text-anchor="start" x="4.5" y="-81.5" font-family="Times,serif" font-size="10.00">+</text>
<text text-anchor="start" x="17.5" y="-81.5" font-family="Times,serif" font-size="10.00">setPuntuacion()</text>
<text text-anchor="start" x="4.5" y="-66.5" font-family="Times,serif" font-size="10.00">+</text>
<text text-anchor="start" x="17.5" y="-66.5" font-family="Times,serif" font-size="10.00">setPuntuacion()</text>
<text text-anchor="start" x="4.5" y="-51.5" font-family="Times,serif" font-size="10.00">+</text>
<text text-anchor="start" x="17.5" y="-51.5" font-family="Times,serif" font-size="10.00">getCaracter()</text>
<text text-anchor="start" x="4.5" y="-36.5" font-family="Times,serif" font-size="10.00">+</text>
<text text-anchor="start" x="17.5" y="-36.5" font-family="Times,serif" font-size="10.00">getCantidad()</text>
<text text-anchor="start" x="4.5" y="-21.5" font-family="Times,serif" font-size="10.00">+</text>
<text text-anchor="start" x="17.5" y="-21.5" font-family="Times,serif" font-size="10.00">getPuntuacion()</text>
<text text-anchor="start" x="4.5" y="-6.5" font-family="Times,serif" font-size="10.00">+</text>
<text text-anchor="start" x="17.5" y="-6.5" font-family="Times,serif" font-size="10.00">operator&lt;()</text>
<polygon fill="#666666" stroke="#666666" points="0.5,-181.5 0.5,-181.5 103.5,-181.5 103.5,-181.5 0.5,-181.5"/>
<polygon fill="#666666" stroke="#666666" points="0.5,-166.5 0.5,-166.5 103.5,-166.5 103.5,-166.5 0.5,-166.5"/>
<polygon fill="none" stroke="#666666" points="0,0 0,-199 103,-199 103,0 0,0"/>
</a>
</g>
</g>
</g>
</svg>
