<?xml version="1.0" encoding="UTF-8" standalone="no"?>
<!DOCTYPE svg PUBLIC "-//W3C//DTD SVG 1.1//EN"
 "http://www.w3.org/Graphics/SVG/1.1/DTD/svg11.dtd">
<!-- Generated by graphviz version 2.43.0 (0)
 -->
<!-- Title: ConjuntoLetras::const_iterator Pages: 1 -->
<svg width="130pt" height="158pt"
 viewBox="0.00 0.00 130.00 158.00" xmlns="http://www.w3.org/2000/svg" xmlns:xlink="http://www.w3.org/1999/xlink">
<g id="graph0" class="graph" transform="scale(1 1) rotate(0) translate(4 154)">
<title>ConjuntoLetras::const_iterator</title>
<!-- Node1 -->
<g id="Node000001" class="node">
<title>Node1</title>
<g id="a_Node000001"><a xlink:title="ConjuntoLetras::const_iterator permite recorrer los elementos del conjunto de letras en orden ascende...">
<polygon fill="#999999" stroke="transparent" points="122,-150 0,-150 0,0 122,0 122,-150"/>
<text text-anchor="start" x="5" y="-138" font-family="Times,serif" font-size="10.00">ConjuntoLetras::const</text>
<text text-anchor="start" x="39.5" y="-127" font-family="Times,serif" font-size="10.00">_iterator</text>
<text text-anchor="start" x="59" y="-112" font-family="Times,serif" font-size="10.00"> </text>
<text text-anchor="start" x="9.5" y="-97" font-family="Times,serif" font-size="10.00">+</text>
<text text-anchor="start" x="28" y="-97" font-family="Times,serif" font-size="10.00">const_iterator()</text>
<text text-anchor="start" x="9.5" y="-82" font-family="Times,serif" font-size="10.00">+</text>
<text text-anchor="start" x="28" y="-82" font-family="Times,serif" font-size="10.00">const_iterator()</text>
<text text-anchor="start" x="9.5" y="-67" font-family="Times,serif" font-size="10.00">+</text>
<text text-anchor="start" x="28" y="-67" font-family="Times,serif" font-size="10.00">operator!=()</text>
<text text-anchor="start" x="9.5" y="-52" font-family="Times,serif" font-size="10.00">+</text>
<text text-anchor="start" x="28" y="-52" font-family="Times,serif" font-size="10.00">operator==()</text>
<text text-anchor="start" x="9.5" y="-37" font-family="Times,serif" font-size="10.00">+</text>
<text text-anchor="start" x="28" y="-37" font-family="Times,serif" font-size="10.00">operator*()</text>
<text text-anchor="start" x="9.5" y="-22" font-family="Times,serif" font-size="10.00">+</text>
<text text-anchor="start" x="28" y="-22" font-family="Times,serif" font-size="10.00">operator++()</text>
<text text-anchor="start" x="9.5" y="-7" font-family="Times,serif" font-size="10.00">+</text>
<text text-anchor="start" x="28" y="-7" font-family="Times,serif" font-size="10.00">operator=()</text>
<polygon fill="#666666" stroke="#666666" points="0,-122 0,-122 122,-122 122,-122 0,-122"/>
<polygon fill="#666666" stroke="#666666" points="0,-107 0,-107 122,-107 122,-107 0,-107"/>
<polygon fill="none" stroke="#666666" points="0,0 0,-150 122,-150 122,0 0,0"/>
</a>
</g>
</g>
</g>
</svg>
