<?xml version="1.0" encoding="UTF-8" standalone="no"?>
<!DOCTYPE svg PUBLIC "-//W3C//DTD SVG 1.1//EN"
 "http://www.w3.org/Graphics/SVG/1.1/DTD/svg11.dtd">
<!-- Generated by graphviz version 2.43.0 (0)
 -->
<!-- Title: Diccionario Pages: 1 -->
<svg width="127pt" height="147pt"
 viewBox="0.00 0.00 127.00 147.00" xmlns="http://www.w3.org/2000/svg" xmlns:xlink="http://www.w3.org/1999/xlink">
<g id="graph0" class="graph" transform="scale(1 1) rotate(0) translate(4 143)">
<title>Diccionario</title>
<!-- Node1 -->
<g id="Node000001" class="node">
<title>Node1</title>
<g id="a_Node000001"><a xlink:title="TDA Diccionario.">
<polygon fill="#999999" stroke="transparent" points="119,-139 0,-139 0,0 119,0 119,-139"/>
<text text-anchor="start" x="31" y="-126.5" font-family="Times,serif" font-size="10.00">Diccionario</text>
<text text-anchor="start" x="58" y="-111.5" font-family="Times,serif" font-size="10.00"> </text>
<text text-anchor="start" x="4.5" y="-96.5" font-family="Times,serif" font-size="10.00">+</text>
<text text-anchor="start" x="17.5" y="-96.5" font-family="Times,serif" font-size="10.00">Diccionario()</text>
<text text-anchor="start" x="4.5" y="-81.5" font-family="Times,serif" font-size="10.00">+</text>
<text text-anchor="start" x="17.5" y="-81.5" font-family="Times,serif" font-size="10.00">Diccionario()</text>
<text text-anchor="start" x="4.5" y="-66.5" font-family="Times,serif" font-size="10.00">+</text>
<text text-anchor="start" x="17.5" y="-66.5" font-family="Times,serif" font-size="10.00">size()</text>
<text text-anchor="start" x="4.5" y="-51.5" font-family="Times,serif" font-size="10.00">+</text>
<text text-anchor="start" x="17.5" y="-51.5" font-family="Times,serif" font-size="10.00">PalabrasLongitud()</text>
<text text-anchor="start" x="4.5" y="-36.5" font-family="Times,serif" font-size="10.00">+</text>
<text text-anchor="start" x="17.5" y="-36.5" font-family="Times,serif" font-size="10.00">Esta()</text>
<text text-anchor="start" x="4.5" y="-21.5" font-family="Times,serif" font-size="10.00">+</text>
<text text-anchor="start" x="17.5" y="-21.5" font-family="Times,serif" font-size="10.00">begin()</text>
<text text-anchor="start" x="4.5" y="-6.5" font-family="Times,serif" font-size="10.00">+</text>
<text text-anchor="start" x="17.5" y="-6.5" font-family="Times,serif" font-size="10.00">end()</text>
<polygon fill="#666666" stroke="#666666" points="0.5,-121.5 0.5,-121.5 119.5,-121.5 119.5,-121.5 0.5,-121.5"/>
<polygon fill="#666666" stroke="#666666" points="0.5,-106.5 0.5,-106.5 119.5,-106.5 119.5,-106.5 0.5,-106.5"/>
<polygon fill="none" stroke="#666666" points="0,0 0,-139 119,-139 119,0 0,0"/>
</a>
</g>
</g>
</g>
</svg>
