<?xml version="1.0" encoding="UTF-8" standalone="no"?>
<!DOCTYPE svg PUBLIC "-//W3C//DTD SVG 1.1//EN"
 "http://www.w3.org/Graphics/SVG/1.1/DTD/svg11.dtd">
<!-- Generated by graphviz version 2.43.0 (0)
 -->
<!-- Title: ConjuntoLetras::iterator Pages: 1 -->
<svg width="141pt" height="147pt"
 viewBox="0.00 0.00 141.00 147.00" xmlns="http://www.w3.org/2000/svg" xmlns:xlink="http://www.w3.org/1999/xlink">
<g id="graph0" class="graph" transform="scale(1 1) rotate(0) translate(4 143)">
<title>ConjuntoLetras::iterator</title>
<!-- Node1 -->
<g id="Node000001" class="node">
<title>Node1</title>
<g id="a_Node000001"><a xlink:title="ConjuntoLetras::iterator permite recorrer los elementos del conjunto de letras en orden ascendente.">
<polygon fill="#999999" stroke="transparent" points="133,-139 0,-139 0,0 133,0 133,-139"/>
<text text-anchor="start" x="5.5" y="-126.5" font-family="Times,serif" font-size="10.00">ConjuntoLetras::iterator</text>
<text text-anchor="start" x="65" y="-111.5" font-family="Times,serif" font-size="10.00"> </text>
<text text-anchor="start" x="15.5" y="-96.5" font-family="Times,serif" font-size="10.00">+</text>
<text text-anchor="start" x="39.5" y="-96.5" font-family="Times,serif" font-size="10.00">iterator()</text>
<text text-anchor="start" x="15.5" y="-81.5" font-family="Times,serif" font-size="10.00">+</text>
<text text-anchor="start" x="39.5" y="-81.5" font-family="Times,serif" font-size="10.00">iterator()</text>
<text text-anchor="start" x="15.5" y="-66.5" font-family="Times,serif" font-size="10.00">+</text>
<text text-anchor="start" x="39.5" y="-66.5" font-family="Times,serif" font-size="10.00">operator!=()</text>
<text text-anchor="start" x="15.5" y="-51.5" font-family="Times,serif" font-size="10.00">+</text>
<text text-anchor="start" x="39.5" y="-51.5" font-family="Times,serif" font-size="10.00">operator==()</text>
<text text-anchor="start" x="15.5" y="-36.5" font-family="Times,serif" font-size="10.00">+</text>
<text text-anchor="start" x="39.5" y="-36.5" font-family="Times,serif" font-size="10.00">operator*()</text>
<text text-anchor="start" x="15.5" y="-21.5" font-family="Times,serif" font-size="10.00">+</text>
<text text-anchor="start" x="39.5" y="-21.5" font-family="Times,serif" font-size="10.00">operator++()</text>
<text text-anchor="start" x="15.5" y="-6.5" font-family="Times,serif" font-size="10.00">+</text>
<text text-anchor="start" x="39.5" y="-6.5" font-family="Times,serif" font-size="10.00">operator=()</text>
<polygon fill="#666666" stroke="#666666" points="0.5,-121.5 0.5,-121.5 133.5,-121.5 133.5,-121.5 0.5,-121.5"/>
<polygon fill="#666666" stroke="#666666" points="0.5,-106.5 0.5,-106.5 133.5,-106.5 133.5,-106.5 0.5,-106.5"/>
<polygon fill="none" stroke="#666666" points="0,0 0,-139 133,-139 133,0 0,0"/>
</a>
</g>
</g>
</g>
</svg>
