<?xml version="1.0" encoding="UTF-8" standalone="no"?>
<!DOCTYPE svg PUBLIC "-//W3C//DTD SVG 1.1//EN"
 "http://www.w3.org/Graphics/SVG/1.1/DTD/svg11.dtd">
<!-- Generated by graphviz version 2.43.0 (0)
 -->
<!-- Title: ConjuntoLetras Pages: 1 -->
<svg width="97pt" height="132pt"
 viewBox="0.00 0.00 97.00 132.00" xmlns="http://www.w3.org/2000/svg" xmlns:xlink="http://www.w3.org/1999/xlink">
<g id="graph0" class="graph" transform="scale(1 1) rotate(0) translate(4 128)">
<title>ConjuntoLetras</title>
<!-- Node1 -->
<g id="Node000001" class="node">
<title>Node1</title>
<g id="a_Node000001"><a xlink:title="TDA ConjuntoLetras.">
<polygon fill="#999999" stroke="transparent" points="89,-124 0,-124 0,0 89,0 89,-124"/>
<text text-anchor="start" x="5.5" y="-112" font-family="Times,serif" font-size="10.00">ConjuntoLetras</text>
<text text-anchor="start" x="43" y="-97" font-family="Times,serif" font-size="10.00"> </text>
<text text-anchor="start" x="8.5" y="-82" font-family="Times,serif" font-size="10.00">+</text>
<text text-anchor="start" x="25.5" y="-82" font-family="Times,serif" font-size="10.00">getLetra()</text>
<text text-anchor="start" x="8.5" y="-67" font-family="Times,serif" font-size="10.00">+</text>
<text text-anchor="start" x="25.5" y="-67" font-family="Times,serif" font-size="10.00">insert()</text>
<text text-anchor="start" x="8.5" y="-52" font-family="Times,serif" font-size="10.00">+</text>
<text text-anchor="start" x="25.5" y="-52" font-family="Times,serif" font-size="10.00">begin()</text>
<text text-anchor="start" x="8.5" y="-37" font-family="Times,serif" font-size="10.00">+</text>
<text text-anchor="start" x="25.5" y="-37" font-family="Times,serif" font-size="10.00">end()</text>
<text text-anchor="start" x="8.5" y="-22" font-family="Times,serif" font-size="10.00">+</text>
<text text-anchor="start" x="25.5" y="-22" font-family="Times,serif" font-size="10.00">begin()</text>
<text text-anchor="start" x="8.5" y="-7" font-family="Times,serif" font-size="10.00">+</text>
<text text-anchor="start" x="25.5" y="-7" font-family="Times,serif" font-size="10.00">end()</text>
<polygon fill="#666666" stroke="#666666" points="0.5,-107 0.5,-107 89.5,-107 89.5,-107 0.5,-107"/>
<polygon fill="#666666" stroke="#666666" points="0.5,-92 0.5,-92 89.5,-92 89.5,-92 0.5,-92"/>
<polygon fill="none" stroke="#666666" points="0,0 0,-124 89,-124 89,0 0,0"/>
</a>
</g>
</g>
</g>
</svg>
